<svg xmlns="http://www.w3.org/2000/svg" width="14" height="17" viewBox="0 0 14 17">
  <path fill="#FFE552" d="M14.25,1.5 L3.75,1.5 C2.9175,1.5 2.25,2.175 2.25,3 L2.25,13.5 C2.25,14.325 2.9175,15 3.75,15 L6.75,15 L9,17.25 L11.25,15 L14.25,15 C15.075,15 15.75,14.325 15.75,13.5 L15.75,3 C15.75,2.175 15.075,1.5 14.25,1.5 Z M9.75,13.5 L8.25,13.5 L8.25,12 L9.75,12 L9.75,13.5 Z M11.3025,7.6875 L10.6275,8.3775 C10.0875,8.925 9.75,9.375 9.75,10.5 L8.25,10.5 L8.25,10.125 C8.25,9.3 8.5875,8.55 9.1275,8.0025 L10.0575,7.0575 C10.335,6.7875 10.5,6.4125 10.5,6 C10.5,5.175 9.825,4.5 9,4.5 C8.175,4.5 7.5,5.175 7.5,6 L6,6 C6,4.3425 7.3425,3 9,3 C10.6575,3 12,4.3425 12,6 C12,6.66 11.73,7.26 11.3025,7.6875 Z" transform="translate(-2 -1)"/>
</svg>
