<svg xmlns="http://www.w3.org/2000/svg" width="240" height="438" viewBox="0 0 240 438">
  <defs>
    <linearGradient id="let-there-be-light-a" x1="0%" x2="0%" y1="0%" y2="100%">
      <stop offset="0%" stop-color="#FFE552"/>
      <stop offset="100%" stop-color="#FFB511"/>
    </linearGradient>
  </defs>
  <g fill="none" transform="translate(0 1)">
    <path fill="url(#let-there-be-light-a)" d="M16.55,412.073 L32.717,395.906 L32.717,412.073 L43.722,412.073 L65.135,390.66 L65.135,394.371 C63.667822,395.282252 62.3926415,396.471152 61.381,397.871 C60.3030129,399.371008 59.7475469,401.183563 59.8,403.03 C59.7312329,404.637467 60.1494893,406.228236 61,407.594 C61.8231425,408.825872 62.9364719,409.836522 64.242,410.537 C61.878535,411.806407 59.8134677,413.565993 58.185,415.698 C56.5850018,417.788301 55.7426373,420.360175 55.796,422.992 C55.7421222,425.1353 56.2572796,427.254588 57.289,429.134 C58.3509004,430.864091 59.8142403,432.312681 61.555,433.357 C63.6027535,434.582246 65.8581946,435.420834 68.209,435.831 C71.0349116,436.367462 73.9067337,436.624701 76.783,436.599 C80.2602009,436.620856 83.7263631,436.205602 87.1,435.363 C90.0306995,434.65527 92.8259251,433.472999 95.375,431.863 C96.5078147,431.130235 97.5653049,430.287124 98.532,429.346 L115.765,412.113 L123.865,412.113 L143.615,392.363 L143.615,412.113 L154.535,412.113 L171.935,394.713 L171.935,398.851 C171.935,403.33 173.044,406.828 175.262,409.43 C177.48,412.032 181.148,413.354 186.225,413.354 C188.696532,413.423727 191.162208,413.077572 193.519,412.33 C194.99862,411.826675 196.438618,411.21364 197.827,410.496 L194.756,402.263 C193.960557,402.770391 193.117576,403.199082 192.239,403.543 C190.954364,404.071047 189.575765,404.332342 188.187,404.311 C186.187,404.311 184.817,403.711 184.007,402.562 C183.197,401.413 182.813,399.576 182.813,397.102 L182.813,382.683 L194.842,370.654 L194.842,362.336 L182.822,362.336 L182.822,348.046 L171.9,348.046 L152.364,367.582 C152.001409,366.938549 151.587747,366.325246 151.127,365.748 C149.901012,364.261423 148.335732,363.091235 146.563,362.336 C144.395112,361.466191 142.073258,361.045365 139.738,361.099 C137.80164,361.062084 135.871866,361.335548 134.022,361.909 C132.46476,362.421329 130.963962,363.091477 129.543,363.909 C128.33939,364.615013 127.222759,365.459787 126.216,366.426 C125.278,367.326 124.51,368.09 123.916,368.772 L123.916,338.023 L113,338.023 L87.956,363.062 C87.274,362.806 86.591,362.55 85.823,362.294 C83.1333801,361.443584 80.3256921,361.026042 77.505,361.057 C74.5087608,361.005554 71.5247949,361.452304 68.675,362.379 C66.2208687,363.187447 63.945904,364.462107 61.975,366.133 C61.634,366.433 61.335,366.733 61.037,367.033 L43.765,384.3 L43.765,373.981 L227.355,190.391 L223.555,182.884 C222.403,183.484 220.74,184.292 218.607,185.315 C216.783238,186.107224 214.833319,186.569394 212.848,186.68 L228.673,170.855 C228.758,170.087 228.801,169.362 228.844,168.637 C228.887,167.912 228.887,167.229 228.887,166.547 C228.887,159.21 227.095,153.447 223.555,149.314 C219.972,145.176 214.855,143.086 208.114,143.086 C204.871027,143.049835 201.657497,143.704336 198.687,145.006 C196.205949,146.109095 193.938109,147.639718 191.987,149.528 L162.087,179.387 L162.087,170.344 L178.339,154.092 L181.026,144.324 C180.359613,143.981573 179.659104,143.710084 178.936,143.514 C177.637527,143.201687 176.304193,143.05817 174.969,143.087 C173.436911,143.055459 171.914004,143.330868 170.49,143.897 C169.191743,144.434067 167.960721,145.121063 166.822,145.944 C165.762756,146.720416 164.815519,147.639052 164.007,148.674 C163.285951,149.55441 162.643491,150.496351 162.087,151.489 L162.087,144.28 L151.087,144.28 L138.333,157.034 C137.535905,154.18444 136.139807,151.537821 134.238,149.271 C130.655,145.133 125.538,143.043 118.797,143.043 C115.554027,143.006835 112.340497,143.661336 109.37,144.963 C106.836686,146.094558 104.525497,147.668876 102.545,149.612 L84.5,167.656 L84.5,158.912 C84.5205233,156.822601 84.247867,154.740652 83.69,152.727 C83.1774845,150.896903 82.3077691,149.186361 81.131,147.694 C79.905012,146.207423 78.3397319,145.037235 76.567,144.282 C74.3991122,143.412191 72.0772578,142.991365 69.742,143.045 C67.8056404,143.008084 65.8758659,143.281548 64.026,143.855 C62.4687603,144.367329 60.967962,145.037477 59.547,145.855 C58.3434004,146.561029 57.2267709,147.405801 56.22,148.372 C55.282,149.272 54.514,150.036 53.92,150.718 L53.92,141.38 L112.87,82.43 L109.8,74.2 C109.004557,74.7073906 108.161576,75.136082 107.283,75.48 C105.998364,76.0080472 104.619765,76.2693415 103.231,76.248 C101.231,76.248 99.861,75.648 99.051,74.499 C98.241,73.35 97.857,71.513 97.857,69.039 L97.857,54.618 L109.886,42.589 L109.886,34.271 L97.852,34.271 L97.852,19.981 L86.932,19.981 L67.353,39.56 C67.268,39.475 67.225,39.389 67.14,39.304 C63.557,35.166 58.44,33.076 51.699,33.076 C48.4557375,33.0410953 45.2421955,33.6969619 42.272,35 C39.7029994,36.1505488 37.3622842,37.7544976 35.362,39.735 L15.313,58.5 L15.313,10 L4.351,10 L4.351,84.093 L15.271,84.093 L30.115,70.571 C31.1053961,73.2393745 32.5642905,75.7094709 34.423,77.865 C36.5698477,80.2715092 39.240411,82.1531513 42.229,83.365 C45.5515791,84.6939338 49.101647,85.3614186 52.68,85.33 L8.019,129.991 L8.019,136.261 L0,144.28 L0,152.6 L8.019,152.6 L8.019,180.8 C8.019,185.279 9.128,188.777 11.346,191.421 C13.564,194.021 17.232,195.345 22.309,195.345 C23.4487503,195.357325 24.5881932,195.300219 25.721,195.174 C25.806,195.174 25.892,195.131 25.977,195.131 C26.148,195.088 26.361,195.088 26.532,195.046 L26.7,195 C29.2707109,194.510097 31.7392912,193.586239 34,192.268 C34.0471303,192.22308 34.1067359,192.193451 34.171,192.183 C36.7216044,190.844814 39.0288225,189.086934 40.996,186.983 C41.678,186.173 42.276,185.49 42.83,184.808 L42.83,192.017 L4.863,229.976 L4.863,301.382 C7.19160335,302.569709 9.6550987,303.471905 12.2,304.069 C15.8885865,304.942436 19.6707669,305.357901 23.461,305.306 C26.9726134,305.347835 30.4604949,304.725581 33.741,303.472 C36.8174764,302.289244 39.6193084,300.489306 41.974,298.183 L56.86,283.3 L56.86,288.675 L5.673,340.027 L5.673,410.027 L5.673,412.074 L16.55,412.074 L16.55,412.073 Z" opacity=".21" style="mix-blend-mode:soft-light"/>
    <path stroke="#FFF" d="M26.55,402.073 L42.717,385.906 L42.717,402.073 L53.722,402.073 L75.135,380.66 L75.135,384.371 C73.667822,385.282252 72.3926415,386.471152 71.381,387.871 C70.3030129,389.371008 69.7475469,391.183563 69.8,393.03 C69.7312329,394.637467 70.1494893,396.228236 71,397.594 C71.8231425,398.825872 72.9364719,399.836522 74.242,400.537 C71.878535,401.806407 69.8134677,403.565993 68.185,405.698 C66.5850018,407.788301 65.7426373,410.360175 65.796,412.992 C65.7421222,415.1353 66.2572796,417.254588 67.289,419.134 C68.3509004,420.864091 69.8142403,422.312681 71.555,423.357 C73.6027535,424.582246 75.8581946,425.420834 78.209,425.831 C81.0349116,426.367462 83.9067337,426.624701 86.783,426.599 C90.2602009,426.620856 93.7263631,426.205602 97.1,425.363 C100.030699,424.65527 102.825925,423.472999 105.375,421.863 C106.507815,421.130235 107.565305,420.287124 108.532,419.346 L125.765,402.113 L133.865,402.113 L153.615,382.363 L153.615,402.113 L164.535,402.113 L181.935,384.713 L181.935,388.851 C181.935,393.33 183.044,396.828 185.262,399.43 C187.48,402.032 191.148,403.354 196.225,403.354 C198.696532,403.423727 201.162208,403.077572 203.519,402.33 C204.99862,401.826675 206.438618,401.21364 207.827,400.496 L204.756,392.263 C203.960557,392.770391 203.117576,393.199082 202.239,393.543 C200.954364,394.071047 199.575765,394.332342 198.187,394.311 C196.187,394.311 194.817,393.711 194.007,392.562 C193.197,391.413 192.813,389.576 192.813,387.102 L192.813,372.683 L204.842,360.654 L204.842,352.336 L192.822,352.336 L192.822,338.046 L181.9,338.046 L162.364,357.582 C162.001409,356.938549 161.587747,356.325246 161.127,355.748 C159.901012,354.261423 158.335732,353.091235 156.563,352.336 C154.395112,351.466191 152.073258,351.045365 149.738,351.099 C147.80164,351.062084 145.871866,351.335548 144.022,351.909 C142.46476,352.421329 140.963962,353.091477 139.543,353.909 C138.33939,354.615013 137.222759,355.459787 136.216,356.426 C135.278,357.326 134.51,358.09 133.916,358.772 L133.916,328.023 L123,328.023 L97.956,353.062 C97.274,352.806 96.591,352.55 95.823,352.294 C93.1333801,351.443584 90.3256921,351.026042 87.505,351.057 C84.5087608,351.005554 81.5247949,351.452304 78.675,352.379 C76.2208687,353.187447 73.945904,354.462107 71.975,356.133 C71.634,356.433 71.335,356.733 71.037,357.033 L53.765,374.3 L53.765,363.981 L237.355,180.391 L233.555,172.884 C232.403,173.484 230.74,174.292 228.607,175.315 C226.783238,176.107224 224.833319,176.569394 222.848,176.68 L238.673,160.855 C238.758,160.087 238.801,159.362 238.844,158.637 C238.887,157.912 238.887,157.229 238.887,156.547 C238.887,149.21 237.095,143.447 233.555,139.314 C229.972,135.176 224.855,133.086 218.114,133.086 C214.871027,133.049835 211.657497,133.704336 208.687,135.006 C206.205949,136.109095 203.938109,137.639718 201.987,139.528 L172.087,169.387 L172.087,160.344 L188.339,144.092 L191.026,134.324 C190.359613,133.981573 189.659104,133.710084 188.936,133.514 C187.637527,133.201687 186.304193,133.05817 184.969,133.087 C183.436911,133.055459 181.914004,133.330868 180.49,133.897 C179.191743,134.434067 177.960721,135.121063 176.822,135.944 C175.762756,136.720416 174.815519,137.639052 174.007,138.674 C173.285951,139.55441 172.643491,140.496351 172.087,141.489 L172.087,134.28 L161.087,134.28 L148.333,147.034 C147.535905,144.18444 146.139807,141.537821 144.238,139.271 C140.655,135.133 135.538,133.043 128.797,133.043 C125.554027,133.006835 122.340497,133.661336 119.37,134.963 C116.836686,136.094558 114.525497,137.668876 112.545,139.612 L94.5,157.656 L94.5,148.912 C94.5205233,146.822601 94.247867,144.740652 93.69,142.727 C93.1774845,140.896903 92.3077691,139.186361 91.131,137.694 C89.905012,136.207423 88.3397319,135.037235 86.567,134.282 C84.3991122,133.412191 82.0772578,132.991365 79.742,133.045 C77.8056404,133.008084 75.8758659,133.281548 74.026,133.855 C72.4687603,134.367329 70.967962,135.037477 69.547,135.855 C68.3434004,136.561029 67.2267709,137.405801 66.22,138.372 C65.282,139.272 64.514,140.036 63.92,140.718 L63.92,131.38 L122.87,72.43 L119.8,64.2 C119.004557,64.7073906 118.161576,65.136082 117.283,65.48 C115.998364,66.0080472 114.619765,66.2693415 113.231,66.248 C111.231,66.248 109.861,65.648 109.051,64.499 C108.241,63.35 107.857,61.513 107.857,59.039 L107.857,44.618 L119.886,32.589 L119.886,24.271 L107.852,24.271 L107.852,9.981 L96.932,9.981 L77.353,29.56 C77.268,29.475 77.225,29.389 77.14,29.304 C73.557,25.166 68.44,23.076 61.699,23.076 C58.4557375,23.0410953 55.2421955,23.6969619 52.272,25 C49.7029994,26.1505488 47.3622842,27.7544976 45.362,29.735 L25.313,48.5 L25.313,0 L14.351,0 L14.351,74.093 L25.271,74.093 L40.115,60.571 C41.1053961,63.2393745 42.5642905,65.7094709 44.423,67.865 C46.5698477,70.2715092 49.240411,72.1531513 52.229,73.365 C55.5515791,74.6939338 59.101647,75.3614186 62.68,75.33 L18.019,119.991 L18.019,126.261 L10,134.28 L10,142.6 L18.019,142.6 L18.019,170.8 C18.019,175.279 19.128,178.777 21.346,181.421 C23.564,184.021 27.232,185.345 32.309,185.345 C33.4487503,185.357325 34.5881932,185.300219 35.721,185.174 C35.806,185.174 35.892,185.131 35.977,185.131 C36.148,185.088 36.361,185.088 36.532,185.046 L36.7,185 C39.2707109,184.510097 41.7392912,183.586239 44,182.268 C44.0471303,182.22308 44.1067359,182.193451 44.171,182.183 C46.7216044,180.844814 49.0288225,179.086934 50.996,176.983 C51.678,176.173 52.276,175.49 52.83,174.808 L52.83,182.017 L14.863,219.976 L14.863,291.382 C17.1916033,292.569709 19.6550987,293.471905 22.2,294.069 C25.8885865,294.942436 29.6707669,295.357901 33.461,295.306 C36.9726134,295.347835 40.4604949,294.725581 43.741,293.472 C46.8174764,292.289244 49.6193084,290.489306 51.974,288.183 L66.86,273.3 L66.86,278.675 L15.673,330.027 L15.673,400.027 L15.673,402.074 L26.55,402.074 L26.55,402.073 Z" opacity=".21"/>
  </g>
</svg>
