<svg xmlns="http://www.w3.org/2000/svg" width="82" height="40">
  <g fill="#FFF">
    <path d="M81.158 28.588V39.12H.86V28.588h80.297zm.842-.82H0V39.96h82V27.767z"/>
    <path d="M74.556 29.904h1.332l3.31 7.938h-1.43l-.704-1.736h-3.781l-.666 1.736h-1.353l3.292-7.938zm2.116 5.112l-.96-2.423c-.274-.687-.51-1.431-.51-1.431h-.04s-.255.782-.51 1.43l-.96 2.424h2.98zm-8.855-5.112h1.371v7.938h-1.371zm-10.029 0h1.37l3.605 4.809c.451.63.823 1.318.842 1.318h.041s-.058-.61-.058-1.221v-4.906h1.234v7.938h-1.234l-3.84-5.094a19.797 19.797 0 0 1-.725-1.183h-.02s.042.534.042 1.01v5.248h-1.257v-7.919zm-8.228 0h2.567c1.9 0 2.997.764 2.997 2.195 0 1.355-1.019 1.965-2.234 2.08v.04a4.8 4.8 0 0 1 .96 1.087l1.94 2.556h-1.568l-1.645-2.27c-.803-1.088-.999-1.183-1.489-1.183h-.156v3.453H49.56v-7.958zm2.527 3.492c1.136 0 1.626-.42 1.626-1.24 0-.84-.548-1.222-1.722-1.222h-1.058v2.462h1.154zm-13.144.497a3.962 3.962 0 0 1 1.219-2.981 4.183 4.183 0 0 1 3.07-1.16c2.724 0 4.29 1.908 4.29 4.083a3.946 3.946 0 0 1-1.206 2.98 4.167 4.167 0 0 1-3.064 1.161c-2.722 0-4.309-1.908-4.309-4.083zm7.15 0c0-1.642-.94-3.054-2.82-3.054-1.881 0-2.88 1.412-2.88 3.015 0 1.641.96 3.036 2.84 3.036s2.86-1.376 2.86-2.997zm-13.81-3.989h4.897v1.088h-3.526v2.252h3.116v1.068h-3.116v3.53h-1.371zm-4.388 0h1.371v7.938h-1.371zm-7.17 0h1.391v6.851h3.447v1.087h-4.838zm-6.64 0h1.332l3.31 7.938h-1.43l-.705-1.736h-3.78l-.665 1.736h-1.353l3.29-7.938zm2.096 5.112l-.96-2.421c-.274-.687-.509-1.431-.509-1.431h-.02s-.254.782-.508 1.43l-.961 2.422h2.958zM2.625 33.854c0-2.213 1.547-4.102 4.31-4.102a4.27 4.27 0 0 1 2.448.63l-.647.992a3.27 3.27 0 0 0-1.841-.516c-1.861 0-2.82 1.26-2.82 2.958 0 1.758.92 3.054 2.86 3.054a3.395 3.395 0 0 0 2.017-.63l.568.935a4.346 4.346 0 0 1-2.624.801c-2.763 0-4.271-1.908-4.271-4.122zM21.3 15.189v10.534H.863V15.19H21.3zm.863-.839H0v12.194h22.164V14.35z"/>
    <path d="M13.664 16.507h4.908v1.068h-3.534v2.252h3.123v1.069h-3.123v3.53h-1.374zM2.63 20.476a3.958 3.958 0 0 1 1.222-2.981 4.198 4.198 0 0 1 3.078-1.16c2.728 0 4.299 1.908 4.299 4.084a3.941 3.941 0 0 1-1.21 2.979 4.18 4.18 0 0 1-3.07 1.161c-2.709.02-4.318-1.89-4.318-4.083zm7.186 0c0-1.641-.942-3.054-2.827-3.054s-2.886 1.413-2.886 3.015c0 1.641.962 3.054 2.847 3.054s2.866-1.393 2.866-3.015zM81.158.839v10.534H.86V.839h80.297zM82 0H0v12.193h82V0z"/>
    <path d="M75.046 7.041l-2.86-4.923h1.489l2.095 3.778h.041l2.057-3.778h1.329l-2.78 4.923v3.015h-1.371zm-8.227-3.816h-2.488V2.118h6.346v1.107H68.19v6.829h-1.371zm-6.152-1.107h1.371v7.938h-1.371zm-8.09 7.29l.607-.955a3.014 3.014 0 0 0 1.9.649c.96 0 1.607-.42 1.607-1.107 0-.838-.784-1.068-1.96-1.602-1.037-.459-1.939-1.03-1.939-2.29 0-1.393 1.215-2.137 2.624-2.137a4.001 4.001 0 0 1 2.37.648l-.587.935a3.083 3.083 0 0 0-1.722-.515c-.783 0-1.353.324-1.353 1.011 0 .764.686.992 1.567 1.374 1.117.496 2.292 1.069 2.292 2.52 0 1.392-1.136 2.25-2.9 2.25a3.61 3.61 0 0 1-2.506-.781zm-7.816-7.29h2.546c1.9 0 2.998.763 2.998 2.195 0 1.354-1.019 1.965-2.234 2.08v.019a4.8 4.8 0 0 1 .96 1.087l1.94 2.556h-1.568l-1.645-2.27c-.803-1.087-1-1.183-1.489-1.183h-.137v3.454h-1.371V2.118zm2.507 3.492c1.137 0 1.627-.42 1.627-1.24 0-.84-.53-1.222-1.705-1.222h-1.076v2.461h1.154zM36.925 2.118h4.976v1.087h-3.623v2.176h3.252v1.05h-3.232v2.538H42v1.088h-5.055V2.118zm-10.029 0h1.45l2.057 5.21c.235.59.47 1.335.47 1.354h.041c0-.02.235-.763.47-1.355l1.976-5.21h1.312l-3.134 7.94h-1.332l-3.31-7.94zm-3.644 0h1.371v7.938h-1.371zm-10.245 0h1.371l3.605 4.809c.47.63.822 1.318.842 1.318h.04s-.058-.611-.058-1.222V2.118h1.233v7.938h-1.235l-3.839-5.095c-.372-.534-.725-1.183-.725-1.183h-.02s.042.535.042 1.03v5.248h-1.275V2.118h.02zM3.095 6.87V2.118h1.371v4.58c0 1.698.647 2.385 2.135 2.385 1.41 0 2.038-.802 2.038-2.233V2.118h1.273v4.618c0 2.116-1.077 3.454-3.37 3.454-2.37.019-3.447-1.298-3.447-3.32z"/>
  </g>
</svg>
