<svg xmlns="http://www.w3.org/2000/svg" width="129" height="28">
  <path fill="#FFF" fill-rule="evenodd" d="M83.61 15.423v6.921c0 1.46-.822 3-3.302 3-2.237 0-3.315-1.162-3.315-3v-6.92h2.035v6.785c0 1.203.512 1.676 1.253 1.676.89 0 1.294-.595 1.294-1.676v-6.786h2.035m3.126 3.623h.027c.377-.608.89-.825 1.604-.825.903 0 1.698.54 1.698 1.487v5.475h-1.9v-4.704c0-.609-.108-1.082-.715-1.082-.606 0-.714.473-.714 1.082v4.704h-1.9v-6.827h1.9v.69m4.663 6.137h1.9v-6.827h-1.9v6.827zm0-8.26h1.9v-1.5h-1.9v1.5zm4.529 1.433l.957 5.123h.027l.997-5.123h1.86l-1.873 6.827h-2.089l-1.806-6.827zm7.858 2.65c0-.663.026-1.609-.877-1.609-.876 0-.862 1.028-.862 1.609h1.74zm-1.74 1.067c0 .812.028 2.028.863 2.028.675 0 .809-.649.809-1.216h1.927c-.027.743-.27 1.35-.728 1.77-.444.42-1.118.663-2.008.663-2.452 0-2.775-1.5-2.775-3.636 0-1.866.268-3.46 2.775-3.46 2.562 0 2.845 1.662 2.777 3.85h-3.64zm6.456-3.717v.879h.027c.35-.784.998-1.014 1.766-1.014v1.703c-1.671-.108-1.698.866-1.698 1.541v3.718h-1.9v-6.827h1.805m3.883 4.637c-.013.31 0 .607.093.824.11.217.311.325.688.325.377 0 .7-.244.7-.704 0-1.445-3.34-1.121-3.34-3.297 0-1.474 1.455-1.92 2.68-1.92 1.294 0 2.468.622 2.359 2.095h-1.86c0-.473-.053-.757-.188-.878-.121-.122-.283-.149-.485-.149-.418 0-.647.27-.647.73 0 1.081 3.341 1.027 3.341 3.217 0 1.19-.969 2.082-2.546 2.082-1.658 0-2.764-.42-2.655-2.325h1.86m4.259 2.19h1.9v-6.827h-1.9v6.827zm0-8.26h1.9v-1.5h-1.9v1.5zm2.532 1.433h.769v-1.081l1.9-.852v1.933h.984v1.176h-.984v3.65c0 .514-.013.852.607.852.122 0 .242 0 .336-.027v1.176c-.255.026-.525.067-.983.067-1.644 0-1.86-1.096-1.86-1.514v-4.204h-.77v-1.176m5.662 6.881l-1.846-6.881h1.887l.97 4.799h.027l1.025-4.799h1.832l-2.627 9.408h-1.995l.727-2.527m-75.353.108c-2.52 0-2.992-1.487-2.884-3.177h2.036c0 .932.04 1.717 1.158 1.717.687 0 1.025-.447 1.025-1.108 0-1.758-4.098-1.866-4.098-4.772 0-1.527.729-2.744 3.208-2.744 1.981 0 2.965.892 2.83 2.933h-1.98c0-.73-.122-1.473-.945-1.473-.659 0-1.05.365-1.05 1.04 0 1.853 4.096 1.69 4.096 4.759 0 2.526-1.846 2.825-3.396 2.825m3.706-6.989h.77v-1.081l1.899-.852v1.933h.984v1.176h-.984v3.65c0 .514-.013.852.607.852.122 0 .243 0 .336-.027v1.176c-.255.026-.525.067-.984.067-1.644 0-1.858-1.096-1.858-1.514v-4.204h-.77v-1.176m6.038 4.704c0 .487.081 1.082.701 1.082 1.12 0 .944-1.515.944-2.258-.944.041-1.645-.04-1.645 1.176zm3.505.851c0 .42.054.853.095 1.272h-1.766l-.08-.906h-.029c-.404.703-.955 1.04-1.778 1.04-1.32 0-1.806-.986-1.806-2.175 0-2.258 1.738-2.352 3.504-2.325v-.528c0-.58-.081-1-.768-1-.66 0-.715.5-.715 1.04h-1.859c0-.824.255-1.35.7-1.662.432-.324 1.052-.446 1.779-.446 2.413 0 2.723 1.041 2.723 2.285v3.405zm.525-5.555h.77v-1.081l1.899-.852v1.933h.984v1.176h-.984v3.65c0 .514-.013.852.607.852.121 0 .243 0 .336-.027v1.176c-.255.026-.525.067-.984.067-1.644 0-1.859-1.096-1.859-1.514v-4.204h-.769v-1.176m7.724 2.65c0-.663.027-1.609-.876-1.609-.876 0-.863 1.028-.863 1.609h1.739zm-1.739 1.067c0 .812.027 2.028.863 2.028.674 0 .808-.649.808-1.216h1.928c-.027.743-.27 1.35-.728 1.77-.445.42-1.119.663-2.008.663-2.453 0-2.777-1.5-2.777-3.636 0-1.866.27-3.46 2.777-3.46 2.56 0 2.844 1.662 2.776 3.85h-3.639zM68.46 7.751c0-2.582 0-5.042 3.356-5.042 2.076 0 2.912 1.15 2.83 3.244h-1.994c0-1.297-.23-1.784-.836-1.784-1.145 0-1.293 1.081-1.293 3.582 0 2.5.148 3.582 1.293 3.582.944 0 .903-1.216.93-1.987h2.009c0 2.609-1.038 3.447-2.939 3.447-3.356 0-3.356-2.487-3.356-5.042m8.816 2.758c0 .486.08 1.081.7 1.081 1.12 0 .944-1.514.944-2.257-.943.04-1.644-.04-1.644 1.176zm3.504.851c0 .42.054.852.094 1.27H79.11l-.081-.905H79c-.404.703-.957 1.041-1.78 1.041-1.32 0-1.805-.987-1.805-2.176 0-2.258 1.739-2.352 3.504-2.325v-.527c0-.582-.08-1-.768-1-.66 0-.715.5-.715 1.04h-1.86c0-.824.256-1.352.701-1.662.432-.325 1.052-.446 1.78-.446 2.411 0 2.722 1.04 2.722 2.284v3.406zm1.199 1.271h1.9v-9.76h-1.9zm3.208-.001h1.9V5.806h-1.9v6.826zm0-8.258h1.9v-1.5h-1.9v1.5zm6.374-.325c-.767-.054-.929.244-.929.933v.825h.889V6.98h-.889v5.65h-1.901V6.98h-.848V5.805h.862c-.014-1.96-.176-3.001 2.143-3.001.228 0 .445.013.673.027v1.216m3.977 4.975c0-1.42-.068-2.136-.876-2.136-.809 0-.877.716-.877 2.136 0 2.081.176 2.528.877 2.528.7 0 .876-.447.876-2.528zm-3.652.108c0-1.865.27-3.46 2.776-3.46 2.507 0 2.775 1.595 2.775 3.46 0 2.136-.323 3.636-2.775 3.636-2.453 0-2.776-1.5-2.776-3.636zm8.37-3.325v.878h.026c.35-.784.997-1.013 1.766-1.013v1.703c-1.672-.108-1.699.865-1.699 1.54v3.718h-1.9V5.805h1.806m4.299.69h.027c.378-.61.89-.825 1.604-.825.903 0 1.698.54 1.698 1.486v5.475h-1.9V7.927c0-.608-.108-1.081-.714-1.081-.607 0-.715.473-.715 1.08v4.705h-1.9V5.805h1.9v.69m4.596 6.136h1.9V5.805h-1.9v6.826zm0-8.26h1.9v-1.5h-1.9v1.5zm4.839 6.138c0 .486.08 1.081.7 1.081 1.12 0 .944-1.514.944-2.257-.943.04-1.644-.04-1.644 1.176zm3.504.851c0 .42.054.852.094 1.27h-1.765l-.081-.905h-.027c-.404.703-.956 1.041-1.78 1.041-1.32 0-1.805-.987-1.805-2.176 0-2.258 1.739-2.352 3.504-2.325v-.527c0-.582-.08-1-.768-1-.66 0-.714.5-.714 1.04h-1.86c0-.824.256-1.352.701-1.662.43-.325 1.05-.446 1.779-.446 2.412 0 2.722 1.04 2.722 2.284v3.406zM52.638 2.871v1.623h-2.264v8.137h-2.036V4.494h-2.264V2.871h6.564m3.896 9.759V7.928c0-.608-.109-1.081-.716-1.081-.605 0-.714.473-.714 1.08v4.705h-1.9V2.87h1.9v3.623h.028c.377-.608.889-.824 1.604-.824.903 0 1.697.54 1.697 1.486v5.475h-1.9m6.362-4.177c0-.662.026-1.608-.877-1.608-.876 0-.862 1.027-.862 1.608h1.74zm-1.74 1.068c0 .811.028 2.028.863 2.028.675 0 .809-.65.809-1.217h1.927c-.027.743-.27 1.352-.728 1.77-.444.42-1.118.663-2.008.663-2.452 0-2.775-1.5-2.775-3.636 0-1.865.268-3.46 2.775-3.46 2.562 0 2.844 1.662 2.777 3.852h-3.64zM.622 26.55V.483h40.433V26.55H.622zm17.177-15.194h2.694s.022-1.82-.018-2.537c-.037-.716-.459-2.627-3.58-2.608-3.056.02-3.725 2.479-3.725 3.486 0 1.007-.039 6.583 0 7.938.038 1.356.967 3.206 3.69 3.214 2.84.01 3.599-1.54 3.627-2.691a54.95 54.95 0 0 0-.001-2.451h-2.694l-.008 1.967c-.002.484-.25 1.152-.93 1.086-.813-.08-.824-.67-.827-1.57-.004-.989 0-6.545 0-7.397 0-.852.27-1.506.907-1.49.607.014.872.498.865 1.49-.007.91 0 1.563 0 1.563zm11.034-.173s-.006-1.041-.006-2.28c0-1.24-.468-2.686-3.264-2.673-2.798.014-3.465 1.567-3.571 2.982-.094 1.269.016 2.125.135 2.44.1.263.272.675 1.14 1.471.832.764 2.108 1.783 2.605 2.382.441.531.405 1.452.405 1.742 0 .292-.003 1.034-.192 1.278-.162.21-.415.274-.74.251-.435-.03-.797-.103-.796-1.064l.008-1.95-2.696-.008s-.004 2.027.014 2.55c.016.436.274 1.408.803 1.832.716.574 1.415.738 2.577.733 1.394-.008 2.299-.296 2.912-.962.491-.533.802-1.32.803-2.985.001-1.743-.346-2.46-1.514-3.605-1.199-1.174-2.376-1.958-2.645-2.613-.207-.504-.153-1.385-.114-1.753.034-.328.162-.638.685-.628.405.007.654.105.78.517.126.407.085 2.343.085 2.343h2.586zm9.141-4.804h-2.873L35.1 17.288c.001.237-.064.703-.238.936-.174.232-.437.36-.785.36-.346 0-.526-.078-.713-.308-.157-.192-.167-.777-.167-.777V6.379h-2.869s.01 9.59.003 10.21c-.007 1.029-.403 4.065 2.213 4.243 2.65.179 2.89-1.902 2.89-1.902v1.751l2.54-.003V6.379z"/>
</svg>
