<svg xmlns="http://www.w3.org/2000/svg" width="82" height="40" viewBox="0 0 82 40">
  <g fill="#FFF" fill-rule="evenodd">
    <g transform="translate(0 27.619)">
      <path fill-rule="nonzero" d="M81.15786,0.968509985 L81.15786,11.5019048 L0.861,11.5019048 L0.861,0.968509985 L81.15786,0.968509985 Z M82,0.148172043 L0,0.148172043 L0,12.3414132 L82,12.3414132 L82,0.148172043 Z"/>
      <path fill-rule="nonzero" d="M74.55604,2.28528418 L75.88813,2.28528418 L79.19888,10.2234716 L77.7688,10.2234716 L77.0636,8.48694316 L73.28299,8.48694316 L72.61715,10.2234716 L71.26415,10.2234716 L74.55604,2.28528418 Z M76.67164,7.39741935 L75.71183,4.97394777 C75.43754,4.28700461 75.20261,3.54294931 75.20261,3.54294931 L75.16161,3.54294931 C75.16161,3.54294931 74.907,4.32534562 74.65239,4.97394777 L73.69258,7.39741935 L76.67164,7.39741935 Z"/>
      <polygon fill-rule="nonzero" points="67.817 2.285 69.188 2.285 69.188 10.223 67.817 10.223"/>
      <path fill-rule="nonzero" d="M57.78786 2.28528418L59.1589 2.28528418 62.76321 7.09388633C63.21421 7.72371736 63.58608 8.41185868 63.60535 8.41185868L63.64635 8.41185868C63.64635 8.41185868 63.58772 7.80119816 63.58772 7.19053763L63.58772 2.28528418 64.82182 2.28528418 64.82182 10.2234716 63.58772 10.2234716 59.74807 5.12850998C59.37579 4.5749616 59.02319 3.94552995 59.02319 3.94552995L59.00351 3.94552995C59.00351 3.94552995 59.04451 4.47990783 59.04451 4.95677419L59.04451 10.2043011 57.78786 10.2043011 57.78786 2.28528418zM49.56039 2.28528418L52.12658 2.28528418C54.02652 2.28528418 55.12368 3.04850998 55.12368 4.47990783 55.12368 5.83462366 54.10524 6.44528418 52.89041 6.55990783L52.89041 6.59984639C53.2646517 6.91329244 53.5882268 7.27992398 53.85022 7.68737327L55.78952 10.2434409 54.2225 10.2434409 52.57717 7.97253456C51.77398 6.88500768 51.578 6.78955453 51.08846 6.78955453L50.93184 6.78955453 50.93184 10.2434409 49.56039 10.2434409 49.56039 2.28528418zM52.08722 5.77711214C53.22333 5.77711214 53.71328 5.35735791 53.71328 4.53662058 53.71328 3.69791091 53.1647 3.31529954 51.99128 3.31529954L50.93348 3.31529954 50.93348 5.77671275 52.08722 5.77711214zM38.94303 6.27354839C38.9065232 5.15815058 39.3480849 4.07824639 40.1618489 3.29274718 40.9756129 2.50724796 42.088199 2.08698532 43.23286 2.13271889 45.95567 2.13271889 47.52269 4.0409831 47.52269 6.21643625 47.5638266 7.32981879 47.1264423 8.40947283 46.3158496 9.19544143 45.505257 9.98141003 44.3949006 10.4024796 43.25213 10.3572657 40.52973 10.3568664 38.94303 8.44900154 38.94303 6.27354839zM46.09302 6.27354839C46.09302 4.63247312 45.15289 3.22024578 43.27222 3.22024578 41.39155 3.22024578 40.39279 4.63247312 40.39279 6.23520737 40.39279 7.87628264 41.3526 9.27053763 43.23327 9.27053763 45.11394 9.27053763 46.09302 7.89545315 46.09302 6.27354839z"/>
      <polygon fill-rule="nonzero" points="32.283 2.285 37.18 2.285 37.18 3.373 33.654 3.373 33.654 5.625 36.77 5.625 36.77 6.693 33.654 6.693 33.654 10.223 32.283 10.223"/>
      <polygon fill-rule="nonzero" points="27.895 2.285 29.266 2.285 29.266 10.223 27.895 10.223"/>
      <polygon fill-rule="nonzero" points="20.725 2.285 22.116 2.285 22.116 9.136 25.563 9.136 25.563 10.223 20.725 10.223"/>
      <path fill-rule="nonzero" d="M14.08473 2.28528418L15.41682 2.28528418 18.72757 10.2234716 17.29708 10.2234716 16.59188 8.48694316 12.81127 8.48694316 12.14666 10.2234716 10.79366 10.2234716 14.08473 2.28528418zM16.18065 7.39741935L15.22166 4.9759447C14.94737 4.28900154 14.71244 3.54494624 14.71244 3.54494624L14.69276 3.54494624C14.69276 3.54494624 14.43815 4.32734255 14.18354 4.9759447L13.22291 7.39741935 16.18065 7.39741935zM2.62482 6.23520737C2.62482 4.0218126 4.17216 2.13271889 6.93433 2.13271889 7.79769786 2.09124015 8.65306235 2.31126494 9.38285 2.76254992L8.73628 3.75462366C8.1907446 3.40412794 7.54829536 3.22436756 6.89497 3.23941628 5.03398 3.23941628 4.07417 4.49867896 4.07417 6.19726575 4.07417 7.95456221 4.99503 9.25056836 6.93433 9.25056836 7.659273 9.25986701 8.36757664 9.03875807 8.95194 8.62073733L9.5202 9.55569892C8.76030048 10.0976272 7.83770544 10.379457 6.8962 10.3572657 4.13321 10.3568664 2.62482 8.44900154 2.62482 6.23520737z"/>
    </g>
    <g transform="translate(0 14.286)">
      <path fill-rule="nonzero" d="M21.300295,0.903010753 L21.300295,11.4372043 L0.862875817,11.4372043 L0.862875817,0.903010753 L21.300295,0.903010753 Z M22.1631708,0.0643010753 L0,0.0643010753 L0,12.2575422 L22.1644035,12.2575422 L22.1644035,0.0643010753 L22.1631708,0.0643010753 Z"/>
      <polygon fill-rule="nonzero" points="13.664 2.221 18.572 2.221 18.572 3.289 15.038 3.289 15.038 5.541 18.161 5.541 18.161 6.61 15.038 6.61 15.038 10.14 13.664 10.14"/>
      <path fill-rule="nonzero" d="M2.63053856,6.18967742 C2.5939522,5.07427961 3.03647591,3.99437542 3.85201285,3.20887621 C4.66754978,2.42337699 5.78255973,2.00311435 6.9297146,2.04884793 C9.65845664,2.04884793 11.2288906,3.95711214 11.2288906,6.13256528 C11.2701169,7.24594782 10.8317797,8.32560186 10.019421,9.11157046 C9.20706231,9.89753907 8.09428689,10.3186086 6.94902658,10.2733948 C4.2404183,10.2921659 2.63053856,8.38390169 2.63053856,6.18967742 Z M9.81582876,6.18967742 C9.81582876,4.54860215 8.87365054,3.13637481 6.98888322,3.13637481 C5.1041159,3.13637481 4.10317996,4.54860215 4.10317996,6.15133641 C4.10317996,7.79241167 5.06508105,9.20463902 6.94984837,9.20463902 C8.83461569,9.20463902 9.81582876,7.81158218 9.81582876,6.18967742 Z"/>
    </g>
    <path fill-rule="nonzero" d="M81.15786,0.838709677 L81.15786,11.3729032 L0.861,11.3729032 L0.861,0.838709677 L81.15786,0.838709677 Z M82,0 L0,0 L0,12.1932412 L82,12.1932412 L82,0 Z"/>
    <polygon fill-rule="nonzero" points="75.046 7.041 72.186 2.118 73.675 2.118 75.77 5.896 75.811 5.896 77.868 2.118 79.197 2.118 76.417 7.041 76.417 10.056 75.046 10.056"/>
    <polygon fill-rule="nonzero" points="66.819 3.225 64.331 3.225 64.331 2.118 70.677 2.118 70.677 3.225 68.19 3.225 68.19 10.054 66.819 10.054"/>
    <polygon fill-rule="nonzero" points="60.667 2.118 62.038 2.118 62.038 10.056 60.667 10.056"/>
    <path fill-rule="nonzero" d="M52.57717 9.40752688L53.18438 8.45339478C53.720641 8.87885326 54.3927287 9.10829075 55.08432 9.10199693 56.04413 9.10199693 56.6907 8.6822427 56.6907 7.99529954 56.6907 7.15658986 55.90719 6.92654378 54.73172 6.39256528 53.6936 5.93447005 52.79242 5.36215054 52.79242 4.10288786 52.79242 2.70983103 54.00684 1.96577573 55.41642 1.96577573 56.2574602 1.92870193 57.0884429 2.15609829 57.78663 2.61437788L57.1991 3.54933948C56.6921087 3.21128607 56.0914847 3.03158462 55.4771 3.0341321 54.69359 3.0341321 54.1241 3.35843318 54.1241 4.04537634 54.1241 4.80860215 54.80962 5.03745008 55.69112 5.41926267 56.80755 5.91529954 57.98302 6.48801843 57.98302 7.9381874 57.98302 9.33124424 56.84691 10.1899232 55.08391 10.1899232 54.1762437 10.2519458 53.278816 9.97184334 52.57717 9.40752688zM44.76093 2.11794163L47.30744 2.11794163C49.20738 2.11794163 50.30454 2.88116743 50.30454 4.31256528 50.30454 5.66728111 49.2861 6.27794163 48.07127 6.39256528L48.07127 6.41173579C48.4455161 6.72517752 48.7690919 7.09180976 49.03108 7.49926267L50.97038 10.0553303 49.40336 10.0553303 47.75803 7.78522273C46.95484 6.69769585 46.75886 6.6022427 46.26932 6.6022427L46.13238 6.6022427 46.13238 10.056129 44.76093 10.056129 44.76093 2.11794163zM47.26849 5.60976959C48.4046 5.60976959 48.89455 5.19001536 48.89455 4.36927803 48.89455 3.53056836 48.36565 3.14795699 47.19018 3.14795699L46.11393 3.14795699 46.11393 5.6093702 47.26849 5.60976959z"/>
    <polygon fill-rule="nonzero" points="36.925 2.118 41.901 2.118 41.901 3.205 38.278 3.205 38.278 5.381 41.53 5.381 41.53 6.431 38.298 6.431 38.298 8.969 42 8.969 42 10.057 36.945 10.057 36.945 2.118"/>
    <path fill-rule="nonzero" d="M26.896,2.11794163 L28.34576,2.11794163 L30.40273,7.3271275 C30.63766,7.91861751 30.873,8.66267281 30.873,8.68184332 L30.914,8.68184332 C30.914,8.66267281 31.14893,7.91861751 31.38427,7.3271275 L33.36047,2.11794163 L34.67247,2.11794163 L31.53802,10.056129 L30.20593,10.056129 L26.896,2.11794163 Z"/>
    <polygon fill-rule="nonzero" points="23.252 2.118 24.623 2.118 24.623 10.056 23.252 10.056"/>
    <path fill-rule="nonzero" d="M13.00725 2.11794163L14.37829 2.11794163 17.9826 6.92654378C18.45287 7.55637481 18.80547 8.24451613 18.82474 8.24451613L18.86574 8.24451613C18.86574 8.24451613 18.80711 7.63385561 18.80711 7.02319508L18.80711 2.11794163 20.03957 2.11794163 20.03957 10.056129 18.80547 10.056129 14.96623 4.96116743C14.59395 4.42678955 14.24135 3.7781874 14.24135 3.7781874L14.22167 3.7781874C14.22167 3.7781874 14.26267 4.31256528 14.26267 4.80860215L14.26267 10.056129 12.98757 10.056129 12.98757 2.11794163 13.00725 2.11794163zM3.09509 6.8706298L3.09509 2.11794163 4.46613 2.11794163 4.46613 6.69769585C4.46613 8.39588326 5.1127 9.08282642 6.60141 9.08282642 8.01181 9.08282642 8.6387 8.2812596 8.6387 6.85026114L8.6387 2.11794163 9.91216 2.11794163 9.91216 6.73563748C9.91216 8.85238095 8.83468 10.1895238 6.54278 10.1895238 4.17257 10.2086943 3.09509 8.89192012 3.09509 6.8706298z"/>
  </g>
</svg>
