<svg xmlns="http://www.w3.org/2000/svg" width="129" height="28" viewBox="0 0 129 28">
  <g fill="#FFF" fill-rule="evenodd">
    <g transform="translate(76 15)">
      <path d="M7.61029104.423172414L7.61029104 7.344C7.61029104 8.80386207 6.78815672 10.3448276 4.30827612 10.3448276 2.07099254 10.3448276.992783582 9.18234483.992783582 7.344L.992783582.423172414 3.02790299.423172414 3.02790299 7.20882759C3.02790299 8.41186207 3.54005224 8.88496552 4.2813209 8.88496552 5.17084328 8.88496552 5.57517164 8.2902069 5.57517164 7.20882759L5.57517164.423172414 7.61029104.423172414M10.7361343 4.0457931L10.7630896 4.0457931C11.1404627 3.43751724 11.6526119 3.22124138 12.3669254 3.22124138 13.2699254 3.22124138 14.0651045 3.76193103 14.0651045 4.70813793L14.0651045 10.1826207 12.1657239 10.1826207 12.1657239 5.47862069C12.1657239 4.87034483 12.0569403 4.39724138 11.4504478 4.39724138 10.8439552 4.39724138 10.7361343 4.87034483 10.7361343 5.47862069L10.7361343 10.1826207 8.83675373 10.1826207 8.83675373 3.35641379 10.7361343 3.35641379 10.7361343 4.0457931M15.3993881 10.1826207L17.2997313 10.1826207 17.2997313 3.35641379 15.3993881 3.35641379 15.3993881 10.1826207zM15.3993881 1.92358621L17.2997313 1.92358621 17.2997313.423172414 15.3993881.423172414 15.3993881 1.92358621z"/>
      <polygon points="19.928 3.356 20.885 8.479 20.912 8.479 21.909 3.356 23.769 3.356 21.896 10.183 19.807 10.183 18.001 3.356"/>
      <path d="M27.7862761 6.0057931C27.7862761 5.34344828 27.8122687 4.39724138 26.9092687 4.39724138 26.0332239 4.39724138 26.0467015 5.42455172 26.0466895 6.0057931L27.7862761 6.0057931zM26.0467015 7.07268966C26.0467015 7.88468966 26.0736567 9.10124138 26.9092687 9.10124138 27.5841119 9.10124138 27.7179254 8.45241379 27.7179254 7.88468966L29.6452239 7.88468966C29.6182687 8.62813793 29.3756716 9.23544828 28.9174328 9.65544828 28.4726716 10.0744828 27.798791 10.3177931 26.9092687 10.3177931 24.457306 10.3177931 24.1338433 8.81737931 24.1338433 6.68165517 24.1338433 4.81627586 24.4024328 3.22124138 26.9092687 3.22124138 29.4709776 3.22124138 29.7540075 4.88386207 29.6856567 7.07268966L26.0467015 7.07268966zM32.5024776 3.35641379L32.5024776 4.23503448 32.5294328 4.23503448C32.8798507 3.45103448 33.5267761 3.22124138 34.295 3.22124138L34.295 4.92441379C32.6237761 4.81627586 32.5968209 5.78951724 32.5968209 6.46537931L32.5968209 10.1826207 30.6974403 10.1826207 30.6974403 3.35641379 32.5024776 3.35641379M36.3849925 7.99282759C36.3715149 8.30372414 36.3849925 8.60013793 36.4783731 8.81737931 36.5871567 9.03365517 36.7893209 9.1417931 37.1657313 9.1417931 37.5431045 9.1417931 37.8665672 8.89848276 37.8665672 8.43793103 37.8665672 6.99255172 34.5250821 7.31696552 34.5250821 5.14068966 34.5250821 3.66731034 35.9806642 3.22124138 37.2061642 3.22124138 38.5000149 3.22124138 39.6735299 3.84303448 39.5647463 5.31641379L37.7048358 5.31641379C37.7048358 4.84331034 37.6518881 4.55944828 37.5171119 4.4377931 37.3958134 4.31613793 37.2340821 4.28910345 37.0319179 4.28910345 36.6141119 4.28910345 36.3849925 4.55944828 36.3849925 5.01903448 36.3849925 6.10041379 39.7264776 6.04634483 39.7264776 8.23613793 39.7264776 9.42565517 38.7570522 10.3177931 37.1801716 10.3177931 35.5224254 10.3177931 34.4162985 9.89875862 34.5250821 7.99282759L36.3849925 7.99282759M40.6439179 10.1826207L42.5432985 10.1826207 42.5432985 3.35641379 40.6439179 3.35641379 40.6439179 10.1826207zM40.6439179 1.92358621L42.5432985 1.92358621 42.5432985.423172414 40.6439179.423172414 40.6439179 1.92358621zM43.1757836 3.35641379L43.9449701 3.35641379 43.9449701 2.27503448 45.8453134 1.42344828 45.8453134 3.35641379 46.8291791 3.35641379 46.8291791 4.53241379 45.8453134 4.53241379 45.8453134 8.18110345C45.8453134 8.69572414 45.8318358 9.03365517 46.451806 9.03365517 46.5740672 9.03365517 46.694403 9.03365517 46.7877836 9.00662069L46.7877836 10.1826207C46.5326716 10.2086897 46.2631194 10.2502069 45.8048806 10.2502069 44.1606119 10.2502069 43.9449701 9.15434483 43.9449701 8.73627586L43.9449701 4.53241379 43.1757836 4.53241379 43.1757836 3.35641379"/>
      <polyline points="48.837 10.237 46.991 3.356 48.878 3.356 49.848 8.155 49.875 8.155 50.9 3.356 52.732 3.356 50.105 12.764 48.11 12.764 48.837 10.237"/>
    </g>
    <g transform="translate(46 15)">
      <path d="M3.48401493 10.3448276C.963701493 10.3448276.491985075 8.85793103.59980597 7.16827586L2.63588806 7.16827586C2.63588806 8.1 2.6763209 8.88496552 3.794 8.88496552 4.48135821 8.88496552 4.81926119 8.43793103 4.81926119 7.77655172 4.81926119 6.01931034.721104478 5.91117241.721104478 3.00496552.721104478 1.47751724 1.44985821.260965517 3.92877612.260965517 5.90998507.260965517 6.89385075 1.15310345 6.75907463 3.1942069L4.77882836 3.1942069C4.77882836 2.46427586 4.65656716 1.72082759 3.83443284 1.72082759 3.17499254 1.72082759 2.7831791 2.0857931 2.7831791 2.76165517 2.7831791 4.61351724 6.88037313 4.45131034 6.88037313 7.51972414 6.88037313 10.0464828 5.0339403 10.3448276 3.48401493 10.3448276M7.19035821 3.35641379L7.95954478 3.35641379 7.95954478 2.27503448 9.85892537 1.42344828 9.85892537 3.35641379 10.842791 3.35641379 10.842791 4.53241379 9.85892537 4.53241379 9.85892537 8.18110345C9.85892537 8.69572414 9.84641045 9.03365517 10.4663806 9.03365517 10.5876791 9.03365517 10.7089776 9.03365517 10.8023582 9.00662069L10.8023582 10.1826207C10.5472463 10.2086897 10.2767313 10.2502069 9.81849254 10.2502069 8.17422388 10.2502069 7.95954478 9.15434483 7.95954478 8.73627586L7.95954478 4.53241379 7.19035821 4.53241379 7.19035821 3.35641379M13.2283284 8.06041379C13.2283284 8.54703448 13.309194 9.1417931 13.9291642 9.1417931 15.0487687 9.1417931 14.872597 7.62689655 14.872597 6.88441379 13.9291642 6.92496552 13.2283284 6.84386207 13.2283284 8.06041379zM16.7334701 8.91103448C16.7334701 9.33103448 16.7873806 9.76358621 16.8278134 10.1826207L15.0622463 10.1826207 14.9813806 9.27696552 14.9534627 9.27696552C14.5491343 9.97986207 13.9975149 10.3177931 13.1753806 10.3177931 11.8545746 10.3177931 11.3693806 9.33103448 11.3693806 8.14151724 11.3693806 5.88413793 13.1070299 5.78951724 14.872597 5.81655172L14.872597 5.28937931C14.872597 4.70813793 14.7917313 4.28910345 14.1053358 4.28910345 13.4449328 4.28910345 13.3900597 4.78924138 13.3900597 5.32993103L11.5311119 5.32993103C11.5311119 4.50537931 11.7862239 3.9782069 12.2319478 3.66731034 12.6632313 3.34289655 13.2832015 3.22124138 14.0100299 3.22124138 16.4225224 3.22124138 16.7334701 4.26206897 16.7334701 5.50565517L16.7334701 8.91103448zM17.2581343 3.35641379L18.0273209 3.35641379 18.0273209 2.27503448 19.9267015 1.42344828 19.9267015 3.35641379 20.9105672 3.35641379 20.9105672 4.53241379 19.9267015 4.53241379 19.9267015 8.18110345C19.9267015 8.69572414 19.9141866 9.03365517 20.5341567 9.03365517 20.6554552 9.03365517 20.7767537 9.03365517 20.8701343 9.00662069L20.8701343 10.1826207C20.6150224 10.2086897 20.3454701 10.2502069 19.8862687 10.2502069 18.242 10.2502069 18.0273209 9.15434483 18.0273209 8.73627586L18.0273209 4.53241379 17.2581343 4.53241379 17.2581343 3.35641379M24.9817687 6.0057931C24.9817687 5.34344828 25.0087239 4.39724138 24.1057239 4.39724138 23.2296791 4.39724138 23.2431567 5.42455172 23.2431447 6.0057931L24.9817687 6.0057931zM23.2431567 7.07268966C23.2431567 7.88468966 23.2701119 9.10124138 24.1057239 9.10124138 24.7796045 9.10124138 24.9143806 8.45241379 24.9143806 7.88468966L26.8416791 7.88468966C26.8147239 8.62813793 26.5721269 9.23544828 26.1138881 9.65544828 25.6691269 10.0744828 24.9952463 10.3177931 24.1057239 10.3177931 21.6527985 10.3177931 21.3293358 8.81737931 21.3293358 6.68165517 21.3293358 4.81627586 21.5988881 3.22124138 24.1057239 3.22124138 26.6664701 3.22124138 26.9495 4.88386207 26.8821119 7.07268966L23.2431567 7.07268966z"/>
    </g>
    <g transform="translate(68 2)">
      <path d="M.460492537 5.75117241C.460492537 3.16937931.460492537.709241379 3.81641791.709241379 5.89197015.709241379 6.72758209 1.8582069 6.64671642 3.95337931L4.65202985 3.95337931C4.65202985 2.65572414 4.42291045 2.16910345 3.81641791 2.16910345 2.6708209 2.16910345 2.52256716 3.25048276 2.52256716 5.75117241 2.52256716 8.25186207 2.6708209 9.33324138 3.81641791 9.33324138 4.75985075 9.33324138 4.71941791 8.11668966 4.74637313 7.3462069L6.75453731 7.3462069C6.75453731 9.95503448 5.71676119 10.7931034 3.81641791 10.7931034.460492537 10.7931034.460492537 8.30593103.460492537 5.75117241M9.27581343 8.50868966C9.27581343 8.99531034 9.35571642 9.59006897 9.97664925 9.59006897 11.095291 9.59006897 10.9200821 8.07613793 10.9200821 7.33268966 9.97664925 7.37324138 9.27581343 7.29213793 9.27581343 8.50868966zM12.7799925 9.36027586C12.7799925 9.77931034 12.833903 10.2118621 12.8743358 10.6308966L11.1087687 10.6308966 11.027903 9.72524138 11.0009478 9.72524138C10.5966194 10.4281379 10.0440373 10.766069 9.22190299 10.766069 7.90109701 10.766069 7.41590299 9.77931034 7.41590299 8.5897931 7.41590299 6.33241379 9.15451493 6.2377931 10.9200821 6.26482759L10.9200821 5.73765517C10.9200821 5.15641379 10.8392164 4.73737931 10.1518582 4.73737931 9.49145522 4.73737931 9.43658209 5.23751724 9.43658209 5.7782069L7.57763433 5.7782069C7.57763433 4.95365517 7.83274627 4.42648276 8.27847015 4.11558621 8.70975373 3.79117241 9.32972388 3.66951724 10.0575149 3.66951724 12.4690448 3.66951724 12.7799925 4.71034483 12.7799925 5.95393103L12.7799925 9.36027586z"/>
      <polygon points="13.979 10.631 15.879 10.631 15.879 .871 13.979 .871"/>
      <path d="M17.1871716 10.6308966L19.0865522 10.6308966 19.0865522 3.80468966 17.1871716 3.80468966 17.1871716 10.6308966zM17.1871716 2.37186207L19.0865522 2.37186207 19.0865522.871448276 17.1871716.871448276 17.1871716 2.37186207zM23.5611194 2.04744828C22.7938582 1.99337931 22.6321269 2.29075862 22.6321269 2.98013793L22.6321269 3.80468966 23.5206866 3.80468966 23.5206866 4.98068966 22.6321269 4.98068966 22.6321269 10.6308966 20.7308209 10.6308966 20.7308209 4.98068966 19.882694 4.98068966 19.882694 3.80468966 20.7452612 3.80468966C20.7308209 1.84468966 20.5690896.803862069 22.8882015.803862069 23.1163582.803862069 23.3329627.81737931 23.5611194.830896552L23.5611194 2.04744828M27.5379776 7.0217931C27.5379776 5.60248276 27.4696269 4.88606897 26.6619328 4.88606897 25.8532761 4.88606897 25.7849254 5.60248276 25.7849254 7.0217931 25.7849254 9.10344828 25.961097 9.54951724 26.6619328 9.54951724 27.3627687 9.54951724 27.5379776 9.10344828 27.5379776 7.0217931zM23.8855448 7.12993103C23.8855448 5.26455172 24.155097 3.66951724 26.6619328 3.66951724 29.1687687 3.66951724 29.4373582 5.26455172 29.4373582 7.12993103 29.4373582 9.26565517 29.1138955 10.766069 26.6619328 10.766069 24.2090075 10.766069 23.8855448 9.26565517 23.8855448 7.12993103zM32.2551418 3.80468966L32.2551418 4.68331034 32.282097 4.68331034C32.6325149 3.89931034 33.2794403 3.66951724 34.0476642 3.66951724L34.0476642 5.37268966C32.3764403 5.26455172 32.3494851 6.2377931 32.3494851 6.91365517L32.3494851 10.6308966 30.4491418 10.6308966 30.4491418 3.80468966 32.2551418 3.80468966M36.5535373 4.49406897L36.5814552 4.49406897C36.9588284 3.8857931 37.4709776 3.66951724 38.185291 3.66951724 39.088291 3.66951724 39.8825075 4.2102069 39.8825075 5.15641379L39.8825075 10.6308966 37.9831269 10.6308966 37.9831269 5.92689655C37.9831269 5.31862069 37.875306 4.84551724 37.2688134 4.84551724 36.6623209 4.84551724 36.5535373 5.31862069 36.5535373 5.92689655L36.5535373 10.6308966 34.6541567 10.6308966 34.6541567 3.80468966 36.5535373 3.80468966 36.5535373 4.49406897M41.1503657 10.6308966L43.0497463 10.6308966 43.0497463 3.80468966 41.1503657 3.80468966 41.1503657 10.6308966zM41.1503657 2.37186207L43.0497463 2.37186207 43.0497463.871448276 41.1503657.871448276 41.1503657 2.37186207zM45.9888284 8.50868966C45.9888284 8.99531034 46.069694 9.59006897 46.6896642 9.59006897 47.808306 9.59006897 47.633097 8.07613793 47.633097 7.33268966 46.6896642 7.37324138 45.9888284 7.29213793 45.9888284 8.50868966zM49.4930075 9.36027586C49.4930075 9.77931034 49.5469179 10.2118621 49.5873507 10.6308966L47.8217836 10.6308966 47.7409179 9.72524138 47.7139627 9.72524138C47.3096343 10.4281379 46.7580149 10.766069 45.9349179 10.766069 44.6141119 10.766069 44.1289179 9.77931034 44.1289179 8.5897931 44.1289179 6.33241379 45.8675299 6.2377931 47.633097 6.26482759L47.633097 5.73765517C47.633097 5.15641379 47.5522313 4.73737931 46.8648731 4.73737931 46.2044701 4.73737931 46.1505597 5.23751724 46.1505597 5.7782069L44.2906493 5.7782069C44.2906493 4.95365517 44.5467239 4.42648276 44.9924478 4.11558621 45.4227687 3.79117241 46.0427388 3.66951724 46.7705299 3.66951724 49.1830224 3.66951724 49.4930075 4.71034483 49.4930075 5.95393103L49.4930075 9.36027586z"/>
    </g>
    <g transform="translate(46 2)">
      <polyline points="6.638 .871 6.638 2.494 4.374 2.494 4.374 10.631 2.338 10.631 2.338 2.494 .074 2.494 .074 .871 6.638 .871"/>
      <path d="M10.5337687 10.6308966L10.5337687 5.92689655C10.5337687 5.31862069 10.4249851 4.84551724 9.81849254 4.84551724 9.21296269 4.84551724 9.1041791 5.31862069 9.1041791 5.92689655L9.1041791 10.6308966 7.20479851 10.6308966 7.20479851.871448276 9.1041791.871448276 9.1041791 4.49406897 9.13209701 4.49406897C9.50947015 3.8857931 10.0206567 3.66951724 10.7359328 3.66951724 11.6389328 3.66951724 12.4331493 4.2102069 12.4331493 5.15641379L12.4331493 10.6308966 10.5337687 10.6308966M16.8952015 6.45406897C16.8952015 5.79172414 16.921194 4.84551724 16.018194 4.84551724 15.1421493 4.84551724 15.1556269 5.87282759 15.1556149 6.45406897L16.8952015 6.45406897zM15.1556269 7.52193103C15.1556269 8.33296552 15.1825821 9.54951724 16.018194 9.54951724 16.6930373 9.54951724 16.8268507 8.90068966 16.8268507 8.33296552L18.7541493 8.33296552C18.727194 9.07641379 18.484597 9.68468966 18.0263582 10.1037241 17.581597 10.5227586 16.9077164 10.766069 16.018194 10.766069 13.5662313 10.766069 13.2427687 9.26565517 13.2427687 7.12993103 13.2427687 5.26455172 13.5113582 3.66951724 16.018194 3.66951724 18.579903 3.66951724 18.8619701 5.33213793 18.7945821 7.52193103L15.1556269 7.52193103z"/>
    </g>
    <path d="M0.621895522,26.5507586 L0.621895522,0.481793103 L41.0547313,0.481793103 L41.0547313,26.5507586 L0.621895522,26.5507586 Z M17.7991119,11.3564138 L20.492709,11.3564138 C20.492709,11.3564138 20.5148507,9.53544828 20.4753806,8.81903448 C20.4378358,8.10262069 20.0161791,6.19186207 16.8951493,6.21117241 C13.8386194,6.23048276 13.1695522,8.68965517 13.1695522,9.69668966 C13.1695522,10.7037241 13.1310448,16.2795862 13.1695522,17.6351724 C13.2080597,18.9907586 14.1370522,20.8406897 16.8595299,20.8493793 C19.7004179,20.8590345 20.4590149,19.3093793 20.4869328,18.1575172 C20.5167761,16.8415172 20.4859701,15.7070345 20.4859701,15.7070345 L17.7923731,15.7070345 C17.7923731,15.7070345 17.7856343,17.0056552 17.783709,17.6737931 C17.7817836,18.1575172 17.5343731,18.8256552 16.8547164,18.76 C16.0412463,18.6808276 16.029694,18.0908966 16.026806,17.1891034 C16.0229552,16.2013793 16.026806,10.6448276 16.026806,9.79324138 C16.026806,8.94068966 16.2973209,8.28703448 16.9336567,8.30248276 C17.5411119,8.31696552 17.8058507,8.80068966 17.7991119,9.79324138 C17.7923731,10.7037241 17.7991119,11.3564138 17.7991119,11.3564138 Z M28.8334254,11.1826207 C28.8334254,11.1826207 28.8266866,10.1417931 28.8266866,8.90206897 C28.8266866,7.66331034 28.3588209,6.21696552 25.5631791,6.23048276 C22.7646493,6.244 22.0984701,7.79655172 21.9916119,9.212 C21.8982313,10.4806897 22.0079776,11.3371034 22.1273507,11.6518621 C22.2274701,11.9154483 22.3988284,12.3267586 23.266209,13.1233103 C24.0989328,13.8870345 25.3754552,14.9056552 25.8722015,15.5052414 C26.3131119,16.0362759 26.2774925,16.9573793 26.2774925,17.2470345 C26.2774925,17.5386207 26.2736418,18.2811034 26.0849552,18.5253793 C25.9232239,18.7348966 25.6700373,18.7986207 25.3456119,18.7764138 C24.9095149,18.7464828 24.5475448,18.6731034 24.5494701,17.7124138 C24.5523582,16.7633103 24.5571716,15.7611034 24.5571716,15.7611034 L21.8606866,15.7543448 C21.8606866,15.7543448 21.8568358,17.7809655 21.8751269,18.3033103 C21.8914925,18.7397241 22.1494925,19.712 22.6780075,20.1358621 C23.3942463,20.7103448 24.0931567,20.8744828 25.2551194,20.8686897 C26.6490896,20.8609655 27.5540149,20.5732414 28.1672463,19.9070345 C28.6582164,19.374069 28.9691642,18.5871724 28.9701269,16.9216552 C28.9710896,15.1788966 28.6235597,14.4624828 27.4558209,13.3173793 C26.2572761,12.1433103 25.0799104,11.3593103 24.8113209,10.7037241 C24.6043433,10.1997241 24.6582537,9.31917241 24.6967612,8.95131034 C24.7314179,8.62303448 24.8594552,8.31310345 25.382194,8.32275862 C25.7874851,8.33048276 26.0358582,8.428 26.1629328,8.84027586 C26.2880821,9.24675862 26.2466866,11.1826207 26.2466866,11.1826207 L28.8334254,11.1826207 Z M37.9741343,6.37917241 L35.1014776,6.37917241 C35.1014776,6.37917241 35.0985896,17.053931 35.0995522,17.2875862 C35.1014776,17.5251034 35.0360149,17.9914483 34.8617687,18.2241379 C34.6884851,18.4558621 34.424709,18.5833103 34.0771791,18.5833103 C33.7306119,18.5833103 33.5505896,18.506069 33.3638284,18.2762759 C33.2069104,18.0841379 33.1972836,17.4990345 33.1972836,17.4990345 L33.1972836,6.37917241 L30.3284776,6.37917241 C30.3284776,6.37917241 30.3371418,15.9696552 30.3313657,16.5895172 C30.3236642,17.6177931 29.928,20.6543448 32.5436194,20.832 C35.1938955,21.0106207 35.4336045,18.929931 35.4336045,18.929931 L35.4336045,20.6813793 L37.9741343,20.6775172 L37.9741343,6.37917241 Z"/>
  </g>
</svg>
